<svg width="478" height="478" viewBox="0 0 478 478" fill="none" xmlns="http://www.w3.org/2000/svg">
<mask id="path-1-inside-1_18_36" fill="white">
<path fill-rule="evenodd" clip-rule="evenodd" d="M392.307 372.908C425.065 336.503 445 288.329 445 235.5C445 122.005 352.995 30 239.5 30C126.005 30 34 122.005 34 235.5C34 348.995 126.005 441 239.5 441C274.107 441 306.715 432.446 335.327 417.336C353.991 430.486 377.493 430.34 408.538 430.147C412.398 430.123 416.373 430.098 420.471 430.098C420.471 430.098 384.75 405.603 392.307 372.908Z"/>
</mask>
<path fill-rule="evenodd" clip-rule="evenodd" d="M392.307 372.908C425.065 336.503 445 288.329 445 235.5C445 122.005 352.995 30 239.5 30C126.005 30 34 122.005 34 235.5C34 348.995 126.005 441 239.5 441C274.107 441 306.715 432.446 335.327 417.336C353.991 430.486 377.493 430.34 408.538 430.147C412.398 430.123 416.373 430.098 420.471 430.098C420.471 430.098 384.75 405.603 392.307 372.908Z" fill="#1E1E1E"/>
<path d="M392.307 372.908L378.183 360.199L374.901 363.847L373.796 368.629L392.307 372.908ZM335.327 417.336L346.27 401.804L336.751 395.098L326.454 400.535L335.327 417.336ZM408.538 430.147L408.42 411.147L408.42 411.147L408.538 430.147ZM420.471 430.098V449.098H481.776L431.216 414.428L420.471 430.098ZM426 235.5C426 283.457 407.924 327.147 378.183 360.199L406.431 385.617C442.206 345.858 464 293.202 464 235.5H426ZM239.5 49C342.501 49 426 132.499 426 235.5H464C464 111.512 363.488 11 239.5 11V49ZM53 235.5C53 132.499 136.499 49 239.5 49V11C115.512 11 15 111.512 15 235.5H53ZM239.5 422C136.499 422 53 338.501 53 235.5H15C15 359.488 115.512 460 239.5 460V422ZM326.454 400.535C300.511 414.235 270.94 422 239.5 422V460C277.273 460 312.919 450.656 344.199 434.138L326.454 400.535ZM408.42 411.147C375.492 411.352 358.963 410.747 346.27 401.804L324.384 432.869C349.02 450.225 379.494 449.328 408.657 449.146L408.42 411.147ZM420.471 411.098C416.305 411.098 412.271 411.123 408.42 411.147L408.657 449.146C412.524 449.122 416.442 449.098 420.471 449.098V411.098ZM373.796 368.629C368.15 393.052 379.016 413.228 388.589 425.469C393.524 431.779 398.671 436.735 402.546 440.102C404.503 441.802 406.186 443.142 407.429 444.09C408.052 444.564 408.568 444.944 408.957 445.224C409.151 445.365 409.314 445.48 409.443 445.571C409.507 445.616 409.564 445.655 409.611 445.688C409.634 445.705 409.656 445.719 409.675 445.733C409.685 445.739 409.694 445.746 409.702 445.751C409.706 445.754 409.712 445.758 409.714 445.76C409.72 445.764 409.726 445.768 420.471 430.098C431.216 414.428 431.221 414.432 431.227 414.435C431.228 414.436 431.233 414.44 431.237 414.442C431.243 414.446 431.249 414.45 431.254 414.454C431.264 414.461 431.273 414.467 431.279 414.472C431.292 414.481 431.297 414.484 431.294 414.482C431.289 414.478 431.252 414.452 431.187 414.405C431.056 414.311 430.812 414.132 430.472 413.874C429.791 413.354 428.743 412.524 427.47 411.418C424.883 409.17 421.572 405.959 418.521 402.059C412.123 393.878 408.907 385.459 410.819 377.187L373.796 368.629Z" fill="white" mask="url(#path-1-inside-1_18_36)"/>
<g filter="url(#filter0_d_18_36)">
<path fill-rule="evenodd" clip-rule="evenodd" d="M280.163 380.866C261.421 380.176 208.306 372.849 152.68 317.222C97.066 261.608 89.7385 208.507 89.0357 189.752C87.9945 161.17 109.886 133.409 135.174 122.568C138.22 121.253 141.554 120.752 144.851 121.115C148.149 121.478 151.295 122.691 153.981 124.637C174.91 139.904 169.374 143.063 181.778 161.18C184.358 164.947 185.54 169.498 185.119 174.044C184.699 178.591 182.702 182.848 179.474 186.078L161.826 203.739C160.473 228.674 186.148 257.176 199.813 270.842C213.479 284.508 254.224 311.75 266.58 308.481L284.216 290.833C287.458 287.598 291.733 285.604 296.294 285.197C300.856 284.79 305.416 285.997 309.179 288.607C327.66 301.414 329.009 295.278 344.835 315.543C346.939 318.249 348.277 321.47 348.709 324.87C349.142 328.27 348.654 331.724 347.295 334.87C336.401 360.289 308.835 381.92 280.163 380.866Z" fill="#EBB701"/>
</g>
<g filter="url(#filter1_d_18_36)">
<path d="M279.048 221.22C272.888 221.22 267.52 220.516 262.944 219.108C258.456 217.788 254.98 215.368 252.516 211.848C250.14 208.416 248.996 203.576 249.084 197.328L249.48 185.316C249.48 182.06 249.084 179.596 248.292 177.924C247.588 176.164 246.532 175.02 245.124 174.492C243.804 173.876 242.132 173.568 240.108 173.568H235.752V161.952H239.976C242.176 161.952 243.98 161.6 245.388 160.896C246.884 160.192 247.984 159.048 248.688 157.464C249.392 155.88 249.744 153.68 249.744 150.864L249.48 139.512C249.48 134.408 250.536 130.14 252.648 126.708C254.76 123.188 257.796 120.548 261.756 118.788C265.716 117.028 270.424 116.148 275.88 116.148H285.516V127.896H273.504C270.16 127.896 267.652 128.776 265.98 130.536C264.396 132.208 263.604 134.76 263.604 138.192L263.868 149.28C263.868 152.096 263.472 154.692 262.68 157.068C261.888 159.356 260.7 161.424 259.116 163.272C257.62 165.032 255.772 166.528 253.572 167.76C255.684 168.728 257.444 170.136 258.852 171.984C260.348 173.832 261.492 176.032 262.284 178.584C263.164 181.136 263.604 184.04 263.604 187.296L263.208 197.196C263.208 200.188 263.692 202.608 264.66 204.456C265.628 206.304 267.124 207.668 269.148 208.548C271.26 209.34 273.944 209.736 277.2 209.736H285.384V221.22H279.048ZM309.936 221.22H303.6V209.736H311.784C315.128 209.736 317.812 209.34 319.836 208.548C321.86 207.668 323.356 206.304 324.324 204.456C325.292 202.608 325.776 200.188 325.776 197.196L325.38 187.296C325.38 184.04 325.776 181.136 326.568 178.584C327.448 176.032 328.592 173.832 330 171.984C331.496 170.136 333.3 168.728 335.412 167.76C333.212 166.528 331.32 165.032 329.736 163.272C328.24 161.424 327.096 159.356 326.304 157.068C325.512 154.692 325.116 152.096 325.116 149.28L325.38 138.192C325.38 134.76 324.544 132.208 322.872 130.536C321.288 128.776 318.824 127.896 315.48 127.896H303.468V116.148H313.104C318.648 116.148 323.356 117.028 327.228 118.788C331.188 120.548 334.224 123.188 336.336 126.708C338.448 130.14 339.504 134.408 339.504 139.512L339.24 150.864C339.24 153.68 339.592 155.88 340.296 157.464C341 159.048 342.1 160.192 343.596 160.896C345.092 161.6 346.896 161.952 349.008 161.952H353.232V173.568H348.876C346.94 173.568 345.268 173.876 343.86 174.492C342.452 175.02 341.352 176.164 340.56 177.924C339.856 179.596 339.504 182.06 339.504 185.316L339.9 197.328C339.988 203.576 338.8 208.416 336.336 211.848C333.96 215.368 330.484 217.788 325.908 219.108C321.42 220.516 316.096 221.22 309.936 221.22Z" fill="#EBB704"/>
</g>
<defs>
<filter id="filter0_d_18_36" x="89" y="107" width="268.862" height="273.903" filterUnits="userSpaceOnUse" color-interpolation-filters="sRGB">
<feFlood flood-opacity="0" result="BackgroundImageFix"/>
<feColorMatrix in="SourceAlpha" type="matrix" values="0 0 0 0 0 0 0 0 0 0 0 0 0 0 0 0 0 0 127 0" result="hardAlpha"/>
<feOffset dx="5" dy="-10"/>
<feGaussianBlur stdDeviation="2"/>
<feComposite in2="hardAlpha" operator="out"/>
<feColorMatrix type="matrix" values="0 0 0 0 0 0 0 0 0 0 0 0 0 0 0 0 0 0 0.25 0"/>
<feBlend mode="normal" in2="BackgroundImageFix" result="effect1_dropShadow_18_36"/>
<feBlend mode="normal" in="SourceGraphic" in2="effect1_dropShadow_18_36" result="shape"/>
</filter>
<filter id="filter1_d_18_36" x="235.752" y="116.148" width="125.48" height="119.071" filterUnits="userSpaceOnUse" color-interpolation-filters="sRGB">
<feFlood flood-opacity="0" result="BackgroundImageFix"/>
<feColorMatrix in="SourceAlpha" type="matrix" values="0 0 0 0 0 0 0 0 0 0 0 0 0 0 0 0 0 0 127 0" result="hardAlpha"/>
<feOffset dx="4" dy="10"/>
<feGaussianBlur stdDeviation="2"/>
<feComposite in2="hardAlpha" operator="out"/>
<feColorMatrix type="matrix" values="0 0 0 0 0 0 0 0 0 0 0 0 0 0 0 0 0 0 0.25 0"/>
<feBlend mode="normal" in2="BackgroundImageFix" result="effect1_dropShadow_18_36"/>
<feBlend mode="normal" in="SourceGraphic" in2="effect1_dropShadow_18_36" result="shape"/>
</filter>
</defs>
</svg>
